HIERARCHY
ROOT Hips
{
	OFFSET 0.000000 0.000000 0.000000
	CHANNELS 6 Xposition Yposition Zposition Yrotation Xrotation Zrotation 
	JOINT LeftHip
	{
		OFFSET 0.085397 -0.001024 0.000114
		CHANNELS 3 Yrotation Xrotation Zrotation
		JOINT LeftKnee
		{
			OFFSET 0.000000 -0.410205 0.000000
			CHANNELS 3 Yrotation Xrotation Zrotation
			JOINT LeftAnkle
			{
				OFFSET 0.000000 -0.492465 0.000077
				CHANNELS 3 Yrotation Xrotation Zrotation
				JOINT LeftToe
				{
					OFFSET 0.000000 -0.086216 0.191193
					CHANNELS 3 Yrotation Xrotation Zrotation
					End Site
					{
						OFFSET 0.000000 0.000000 0.000000
					}
				}
			}
		}
	}
	JOINT RightHip
	{
		OFFSET -0.085397 -0.000998 0.000111
		CHANNELS 3 Yrotation Xrotation Zrotation
		JOINT RightKnee
		{
			OFFSET 0.000000 -0.410205 0.000000
			CHANNELS 3 Yrotation Xrotation Zrotation
			JOINT RightAnkle
			{
				OFFSET 0.000000 -0.492465 0.000077
				CHANNELS 3 Yrotation Xrotation Zrotation
				JOINT RightToe
				{
					OFFSET 0.000000 -0.086216 0.191193
					CHANNELS 3 Yrotation Xrotation Zrotation
					End Site
					{
						OFFSET 0.000000 0.000000 0.000000
					}
				}
			}
		}
	}
	JOINT Chest
	{
		OFFSET 0.000000 0.105887 -0.011765
		CHANNELS 3 Yrotation Xrotation Zrotation
		JOINT Chest3
		{
			OFFSET 0.000000 0.233831 -0.010941
			CHANNELS 3 Yrotation Xrotation Zrotation
			JOINT Chest4
			{
				OFFSET 0.000000 0.111697 0.000413
				CHANNELS 3 Yrotation Xrotation Zrotation
				JOINT Neck
				{
					OFFSET 0.000000 0.151984 0.000000
					CHANNELS 3 Yrotation Xrotation Zrotation
					JOINT Head
					{
						OFFSET 0.000000 0.085950 0.000546
						CHANNELS 3 Yrotation Xrotation Zrotation
						End Site
						{
							OFFSET 0.000000 0.000000 0.000000
						}
					}
				}
				JOINT LeftCollar
				{
					OFFSET 0.029156 0.084949 0.000000
					CHANNELS 3 Yrotation Xrotation Zrotation
					JOINT LeftShoulder
					{
						OFFSET 0.131330 0.000000 0.000000
						CHANNELS 3 Yrotation Xrotation Zrotation
						JOINT LeftElbow
						{
							OFFSET 0.323986 0.000000 0.000000
							CHANNELS 3 Yrotation Xrotation Zrotation
							JOINT LeftWrist
							{
								OFFSET 0.253224 0.000000 -0.000037
								CHANNELS 3 Yrotation Xrotation Zrotation
								End Site
								{
									OFFSET 0.000000 0.000000 0.000000
								}
							}
						}
					}
				}
				JOINT RightCollar
				{
					OFFSET -0.029156 0.084949 0.000000
					CHANNELS 3 Yrotation Xrotation Zrotation
					JOINT RightShoulder
					{
						OFFSET -0.131330 0.000000 0.000000
						CHANNELS 3 Yrotation Xrotation Zrotation
						JOINT RightElbow
						{
							OFFSET -0.323986 0.000000 0.000000
							CHANNELS 3 Yrotation Xrotation Zrotation
							JOINT RightWrist
							{
								OFFSET -0.253224 0.000000 -0.000037
								CHANNELS 3 Yrotation Xrotation Zrotation
								End Site
								{
									OFFSET 0.000000 0.000000 0.000000
								}
							}
						}
					}
				}
			}
		}
	}
}
MOTION
Frames: 11
Frame Time: 0.016667
0.000000 0.000000 0.000000 213.682673 12.297479 3.017857 5.702347 335.631249 1.049130 358.903398 36.837462 359.972231 1.154180 356.153369 348.311528 357.255778 347.926679 1.208262 349.151566 336.505322 0.961221 358.179584 18.098521 357.924680 345.637608 354.938721 2.917971 0.677608 357.805698 1.553860 359.524731 359.621508 5.628381 358.854973 353.475287 5.093305 7.479673 6.645869 2.579950 351.884152 20.437591 358.871480 343.631787 6.452394 358.294607 1.411900 0.274223 347.414163 1.843876 3.214119 282.331992 289.776706 332.133313 314.733272 6.770746 5.639605 5.247264 5.499948 357.028533 0.662360 11.848045 329.425487 55.118097 61.672110 352.297705 3.914810 9.043846 1.196756 349.751144 
0.000000 0.000000 0.000000 213.435395 12.051036 2.740793 5.587088 334.125852 1.861199 358.666421 39.800031 359.642325 0.963134 357.004511 348.051999 357.880129 346.684245 1.118748 349.221312 337.100798 1.231195 358.165983 18.049287 357.987924 345.715238 354.641155 2.963804 359.973247 357.817561 1.434139 359.514231 359.461664 5.613341 358.842449 353.337882 5.076548 6.867002 6.595303 2.523155 352.035830 20.341110 358.795585 343.634589 6.217819 358.450663 1.546858 0.335508 347.460586 2.219812 3.294638 282.448509 289.572709 332.206268 314.937109 6.536248 5.847833 5.264088 5.118375 357.224608 0.823445 10.392002 330.024017 56.133428 65.416004 353.569284 4.485191 8.982504 1.513680 348.334234 
0.000000 0.000000 0.000000 212.998111 11.833770 2.497445 5.283570 332.781376 2.556184 358.437330 42.412351 359.398306 0.827423 357.781577 347.999535 358.669472 345.693063 0.972195 349.379197 337.593372 1.431297 358.169471 18.068760 358.034072 345.891928 354.374571 3.004878 359.452368 357.875899 1.364775 359.509696 359.290440 5.562467 358.838348 353.189265 5.027181 6.263634 6.524400 2.446680 352.239105 20.257512 358.720521 343.830598 5.966717 358.579790 1.670557 0.406660 347.525996 2.623562 3.375120 282.559832 289.384493 332.306457 315.177702 6.148967 5.963029 5.401117 4.685711 357.539040 0.951524 9.183229 330.524924 57.039988 69.264376 354.977487 4.952248 8.782920 1.735189 346.946462 
0.000000 0.000000 0.000000 212.376808 11.631687 2.286647 4.971546 331.831514 3.202265 358.257127 44.094535 359.212853 0.747642 358.324360 348.002405 359.402342 345.429451 0.900770 349.606983 338.127626 1.568712 358.229289 17.951870 358.070383 346.150548 354.197641 3.030346 359.070562 357.929130 1.340572 359.511878 359.127566 5.482103 358.841916 353.046608 4.951224 5.704723 6.436786 2.355190 352.473011 20.191469 358.650691 344.252342 5.682718 358.615354 1.779408 0.472784 347.610016 3.044568 3.485373 282.677342 289.244553 332.398066 315.401157 5.672931 5.980333 5.630192 4.226917 357.904742 1.046379 8.052131 330.928585 57.919515 73.229253 356.154668 5.372911 8.442445 2.088210 345.717852 
0.000000 0.000000 0.000000 211.518430 11.438804 2.119864 4.786521 331.383116 3.726301 358.122666 44.663371 359.169029 0.736260 358.458971 347.916111 0.006813 346.033285 1.015349 349.952782 338.742424 1.604848 358.336499 17.636981 358.122767 346.524536 354.125070 3.019318 358.780719 357.971235 1.371063 359.523248 358.989545 5.360775 358.856959 352.924129 4.838481 5.215617 6.344695 2.241169 352.750100 20.127494 358.593908 344.881825 5.377361 358.571838 1.871709 0.508987 347.722098 3.497037 3.654872 282.819719 289.171722 332.453116 315.569892 5.212289 5.908811 5.918896 3.816029 358.402451 1.157354 7.045280 331.112814 58.656909 77.185707 356.846141 5.703448 7.863045 2.736463 344.495286 
0.000000 0.000000 0.000000 210.475149 11.260673 1.986880 4.652817 331.345414 4.144522 358.083313 44.335724 359.286201 0.821792 358.322202 347.854557 0.495924 347.135515 1.119700 350.389190 339.382067 1.561502 358.477366 17.207049 358.178596 346.988004 354.130927 2.988499 358.611503 357.991520 1.431393 359.541135 358.857581 5.211780 358.879661 352.805881 4.700782 4.795990 6.250581 2.111645 353.056102 20.074256 358.548280 345.672787 5.086377 358.415805 1.947771 0.525730 347.853530 3.963511 3.849359 282.970848 289.161896 332.495498 315.703664 4.835340 5.709164 6.257081 3.407283 358.954247 1.249893 6.067416 331.160492 59.312585 81.090369 357.373908 5.933493 7.693090 4.091800 342.958779 
0.000000 0.000000 0.000000 209.409111 11.100876 1.852863 4.485984 331.622312 4.549555 358.240425 43.207161 359.569741 1.054134 358.186565 347.982092 0.814436 348.421458 0.981666 350.827213 339.984267 1.511191 358.620152 16.797019 358.223673 347.461921 354.144126 2.965927 358.654544 357.974156 1.460777 359.557832 358.703201 5.072540 358.899842 352.667834 4.571536 4.424873 6.158851 1.985331 353.342164 20.058676 358.507864 346.567142 4.826275 358.092586 2.013608 0.534996 347.980392 4.392186 4.014757 283.104830 289.208290 332.573363 315.820907 4.559860 5.419839 6.603468 3.023039 359.275133 1.318756 5.118544 331.297583 60.030871 84.599527 358.123392 5.931737 7.722620 5.145809 341.258851 
0.000000 0.000000 0.000000 208.397224 10.966554 1.707582 4.300908 332.276028 4.918286 358.651301 41.053423 0.129701 1.546949 358.197533 348.450617 0.933788 349.904415 0.392537 351.228623 340.549545 1.476724 358.756272 16.406865 358.261396 347.905728 354.159608 2.956788 358.861421 357.922490 1.428031 359.571342 358.498153 4.946559 358.915558 352.486244 4.453576 4.063616 6.114945 1.888583 353.589380 20.086148 358.469544 347.476836 4.617901 357.646793 2.073518 0.518329 348.089576 4.766926 4.131563 283.205289 289.337318 332.723698 315.930237 4.377695 5.206495 6.836693 2.655062 359.388801 1.335080 4.172500 331.490125 60.688780 87.795496 358.873288 5.710306 7.625032 5.734599 339.566445 
0.000000 0.000000 0.000000 207.362557 10.850337 1.559651 4.108989 333.293832 5.271915 359.126578 37.990778 0.724275 2.277958 358.266310 349.211073 0.971636 351.533951 359.540942 351.631694 341.088250 1.433012 358.883497 16.009603 358.289385 348.375678 354.197169 2.948759 359.032421 357.847549 1.350186 359.586606 358.270319 4.820806 358.930217 352.284974 4.335733 3.717968 6.043481 1.888329 353.819607 20.153865 358.389491 348.243104 4.513126 357.172802 2.133723 0.494303 348.149802 5.093614 4.243416 283.259719 289.557646 332.929686 316.049245 4.261698 5.183703 6.836580 2.274151 359.531275 1.277810 3.255349 331.495268 61.274884 90.761511 359.627771 5.398623 7.305797 6.206445 337.885622 
0.000000 0.000000 0.000000 206.233477 10.734020 1.402363 3.930412 334.458588 5.570955 359.496827 34.651358 1.262730 2.922661 358.393669 349.881414 1.194449 352.872626 358.875351 352.080150 341.690193 1.337210 359.022400 15.442842 358.337606 348.904096 354.339101 2.922613 359.037285 357.750699 1.226720 359.596794 358.049564 4.725111 358.938430 352.090283 4.245759 3.378283 5.983441 1.888432 354.069364 20.234571 358.296125 348.817326 4.476406 356.759333 2.190594 0.468832 348.192868 5.377306 4.318796 283.306838 289.748716 333.138209 316.195963 4.179093 5.234391 6.645639 1.964708 359.588250 1.222054 2.407820 331.386344 61.780462 93.660948 0.453179 4.998610 6.566711 6.570943 336.423057 
0.000000 0.000000 0.000000 204.999267 10.603440 1.228582 3.805516 335.708324 5.843777 359.701853 31.198620 1.702573 3.419605 358.501545 350.373165 1.548810 353.980243 358.496737 352.550649 342.309945 1.218850 359.181369 14.825157 358.382209 349.483892 354.521038 2.895078 358.904060 357.642428 1.063766 359.599865 357.849387 4.670521 358.937647 351.913624 4.193701 3.079100 5.940704 1.887508 354.328833 20.330516 358.190410 349.189734 4.481409 356.429159 2.245768 0.429728 348.228269 5.594092 4.351348 283.343431 289.906843 333.331640 316.372588 4.079435 5.285024 6.376311 1.693749 359.486100 1.140200 1.535150 331.195057 62.113790 96.422292 1.204835 4.789130 5.586779 6.830765 335.108176 
